<?xml version="1.0" encoding="UTF-8" standalone="no"?>
<!-- Created with Inkscape (http://www.inkscape.org/) -->

<svg
   width="16"
   height="16"
   viewBox="0 0 4.2333333 4.2333333"
   version="1.1"
   id="svg5"
   inkscape:version="1.1 (ce6663b3b7, 2021-05-25)"
   sodipodi:docname="drawing2.svg"
   xmlns:inkscape="http://www.inkscape.org/namespaces/inkscape"
   xmlns:sodipodi="http://sodipodi.sourceforge.net/DTD/sodipodi-0.dtd"
   xmlns="http://www.w3.org/2000/svg"
   xmlns:svg="http://www.w3.org/2000/svg">
  <sodipodi:namedview
     id="namedview7"
     pagecolor="#ffffff"
     bordercolor="#111111"
     borderopacity="1"
     inkscape:pageshadow="0"
     inkscape:pageopacity="0"
     inkscape:pagecheckerboard="1"
     inkscape:document-units="px"
     showgrid="false"
     inkscape:zoom="33.25"
     inkscape:cx="7.9849624"
     inkscape:cy="-0.22556391"
     inkscape:window-width="1294"
     inkscape:window-height="704"
     inkscape:window-x="72"
     inkscape:window-y="27"
     inkscape:window-maximized="1"
     inkscape:current-layer="layer1" />
  <defs
     id="defs2" />
  <g
     inkscape:label="Layer 1"
     inkscape:groupmode="layer"
     id="layer1">
    <rect
       style="fill:#ffff00;stroke-width:0.264583"
       id="rect111"
       width="1.4101663"
       height="0.94821543"
       x="-1.4544122"
       y="0.88443506" />
    <path
       sodipodi:type="spiral"
       style="fill:none;fill-rule:evenodd;stroke:#000000"
       id="path136"
       sodipodi:cx="-2.1945102"
       sodipodi:cy="4.6554222"
       sodipodi:expansion="1"
       sodipodi:revolution="3.0420496"
       sodipodi:radius="0.25861782"
       sodipodi:argument="-18.04328"
       sodipodi:t0="0"
       d="m -2.1945102,4.6554222 c 0.00885,0.00923 -0.00807,0.016485 -0.015339,0.014711 -0.019689,-0.00481 -0.02234,-0.030208 -0.014084,-0.045389 0.014768,-0.027155 0.051697,-0.029602 0.07544,-0.013457 0.034844,0.023694 0.037085,0.07348 0.012829,0.1054907 -0.03233,0.042665 -0.095367,0.044664 -0.1355412,0.012202 -0.050555,-0.040851 -0.052293,-0.117305 -0.011574,-0.1655918 0.049315,-0.058482 0.1392706,-0.059949 0.1956423,-0.010947 0.066432,0.057748 0.067624,0.1612538 0.010319,0.2256929 -0.066161,0.074397 -0.1832488,0.075311 -0.2557434,0.00969 -0.082373,-0.074561 -0.083006,-0.205252 -0.00906,-0.285794 0.082952,-0.090356 0.2272612,-0.090707 0.3158445,-0.00844 0.098344,0.091336 0.098413,0.2492749 0.00781,0.3458951 -0.015496,0.016525 -0.033198,0.030961 -0.052479,0.042851"
       transform="scale(0.26458333)" />
    <path
       sodipodi:type="spiral"
       style="fill:none;fill-rule:evenodd;stroke:#000000"
       id="path138"
       sodipodi:cx="-2.3269291"
       sodipodi:cy="5.6078219"
       sodipodi:expansion="1"
       sodipodi:revolution="3.0420499"
       sodipodi:radius="0.85053331"
       sodipodi:argument="-18.061121"
       sodipodi:t0="0"
       d="m -2.3269291,5.6078219 c 0.029647,0.029827 -0.02558,0.054679 -0.049575,0.049275 -0.065025,-0.014645 -0.075232,-0.098022 -0.048975,-0.1484255 0.046969,-0.09016 0.168256,-0.1003704 0.2472758,-0.048675 0.1159648,0.075865 0.1262568,0.2394439 0.048374,0.3461261 -0.1038048,0.1421907 -0.3109705,0.1524623 -0.4449764,0.048074 -0.1686327,-0.1313616 -0.178833,-0.3826588 -0.047774,-0.5438267 0.1587298,-0.195196 0.454438,-0.2052993 0.642677,-0.047474 0.2218332,0.1859917 0.2318256,0.526274 0.047174,0.7415274 -0.2131879,0.2485186 -0.5981477,0.2583919 -0.8403777,0.046874 -0.2752371,-0.2403406 -0.2849863,-0.6700481 -0.046573,-0.939228 0.2674633,-0.3019791 0.7419679,-0.311601 1.0380783,-0.046273 0.3287387,0.2945642 0.3382309,0.8139023 0.045973,1.1369286 -0.049985,0.055247 -0.1073468,0.1037561 -0.1700507,0.143985"
       transform="scale(0.26458333)" />
    <path
       sodipodi:type="spiral"
       style="fill:none;fill-rule:evenodd;stroke:#000000"
       id="path140"
       sodipodi:cx="-1.3827657"
       sodipodi:cy="3.9139616"
       sodipodi:expansion="1"
       sodipodi:revolution="3.0420499"
       sodipodi:radius="0.78246057"
       sodipodi:argument="-18.690733"
       sodipodi:t0="0"
       d="m -1.3827657,3.9139616 c 0.038202,0.00612 0.0106,0.054515 -0.01017,0.063495 -0.056284,0.024335 -0.1090393,-0.032132 -0.1168188,-0.083835 -0.013915,-0.092483 0.070739,-0.165777 0.1574989,-0.1701432 0.1273242,-0.00641 0.2235881,0.1096488 0.2234676,0.2311634 -1.606e-4,0.1619597 -0.1486381,0.2818199 -0.3048278,0.2767919 -0.1965488,-0.00633 -0.340262,-0.1876579 -0.3301163,-0.3784922 0.012288,-0.2311259 0.2266937,-0.3988246 0.4521566,-0.3834407 0.2657003,0.018129 0.45746248,0.2657391 0.43676511,0.5258211 -0.0238959,0.3002749 -0.30479101,0.5161506 -0.59948551,0.4900894 -0.3348506,-0.029612 -0.574874,-0.3438475 -0.5434138,-0.6731499 0.035294,-0.3694276 0.3829073,-0.6336231 0.7468143,-0.5967382 0.40400579,0.040949 0.69239137,0.4219698 0.65006264,0.8204788 -0.007239,0.068157 -0.0236144,0.1352998 -0.0484469,0.1991796"
       transform="scale(0.26458333)" />
    <path
       sodipodi:type="spiral"
       style="fill:none;fill-rule:evenodd;stroke:#000000"
       id="path142"
       sodipodi:cx="-2.3269291"
       sodipodi:cy="5.6078219"
       sodipodi:expansion="1"
       sodipodi:revolution="3.0420499"
       sodipodi:radius="0.85053331"
       sodipodi:argument="-18.061121"
       sodipodi:t0="0"
       d="m -2.3269291,5.6078219 c 0.029647,0.029827 -0.02558,0.054679 -0.049575,0.049275 -0.065025,-0.014645 -0.075232,-0.098022 -0.048975,-0.1484255 0.046969,-0.09016 0.168256,-0.1003704 0.2472758,-0.048675 0.1159648,0.075865 0.1262568,0.2394439 0.048374,0.3461261 -0.1038048,0.1421907 -0.3109705,0.1524623 -0.4449764,0.048074 -0.1686327,-0.1313616 -0.178833,-0.3826588 -0.047774,-0.5438267 0.1587298,-0.195196 0.454438,-0.2052993 0.642677,-0.047474 0.2218332,0.1859917 0.2318256,0.526274 0.047174,0.7415274 -0.2131879,0.2485186 -0.5981477,0.2583919 -0.8403777,0.046874 -0.2752371,-0.2403406 -0.2849863,-0.6700481 -0.046573,-0.939228 0.2674633,-0.3019791 0.7419679,-0.311601 1.0380783,-0.046273 0.3287387,0.2945642 0.3382309,0.8139023 0.045973,1.1369286 -0.049985,0.055247 -0.1073468,0.1037561 -0.1700507,0.143985"
       transform="scale(0.26458333)" />
    <path
       style="fill:none;stroke:#000000;stroke-width:0.264583px;stroke-linecap:butt;stroke-linejoin:miter;stroke-opacity:1"
       d="M -0.9039971,0.34757135 -0.54780679,1.2917862"
       id="path243" />
    <path
       style="fill:none;stroke:#000000;stroke-width:0.264583px;stroke-linecap:butt;stroke-linejoin:miter;stroke-opacity:1"
       d="m -0.27099797,1.5033599 0.0522668,-0.1665292"
       id="path245" />
    <text
       xml:space="preserve"
       style="font-style:normal;font-weight:normal;font-size:10.5833px;line-height:1.25;font-family:sans-serif;fill:#000000;fill-opacity:1;stroke:none;stroke-width:0.264583"
       x="-1.9887909"
       y="2.3365707"
       id="text2581"><tspan
         sodipodi:role="line"
         id="tspan2579"
         style="stroke-width:0.264583"
         x="-1.9887909"
         y="2.3365707">G4music</tspan></text>
  </g>
</svg>
